<?xml version="1.0" encoding="UTF-8" standalone="no"?>
<!-- Uploaded to: SVG Repo, www.svgrepo.com, Generator: SVG Repo Mixer Tools -->

<svg
   width="800"
   height="800"
   viewBox="0 -41 256 256"
   version="1.1"
   preserveAspectRatio="xMidYMid"
   id="svg12"
   sodipodi:docname="arduino-svgrepo-com.svg"
   inkscape:version="1.4 (86a8ad7, 2024-10-11)"
   xmlns:inkscape="http://www.inkscape.org/namespaces/inkscape"
   xmlns:sodipodi="http://sodipodi.sourceforge.net/DTD/sodipodi-0.dtd"
   xmlns="http://www.w3.org/2000/svg"
   xmlns:svg="http://www.w3.org/2000/svg">
  <defs
     id="defs12" />
  <sodipodi:namedview
     id="namedview12"
     pagecolor="#ffffff"
     bordercolor="#000000"
     borderopacity="0.25"
     inkscape:showpageshadow="2"
     inkscape:pageopacity="0.0"
     inkscape:pagecheckerboard="0"
     inkscape:deskcolor="#d1d1d1"
     inkscape:zoom="0.70533901"
     inkscape:cx="299.14693"
     inkscape:cy="317.57778"
     inkscape:window-width="1920"
     inkscape:window-height="991"
     inkscape:window-x="-9"
     inkscape:window-y="-9"
     inkscape:window-maximized="1"
     inkscape:current-layer="g12" />
  <g
     fill="#00979c"
     id="g12">
    <path
       d="m 64.632,153.696 c -0.155,-0.166 -0.313,-0.323 -0.474,-0.47 0.323,-0.122 0.638,-0.252 0.946,-0.394 1.25,-0.574 2.345,-1.343 3.255,-2.28 0.92,-0.946 1.643,-2.086 2.148,-3.389 0.5,-1.287 0.754,-2.766 0.754,-4.393 0,-2.243 -0.405,-4.183 -1.201,-5.768 -0.805,-1.603 -1.97,-2.923 -3.461,-3.924 -1.447,-0.97 -3.207,-1.671 -5.232,-2.082 -1.946,-0.395 -4.138,-0.597 -6.513,-0.597 H 41.456 v 42.843 h 10.275 v -16.74 h 0.305 c 1.124,0 2.061,0.247 2.864,0.757 0.797,0.505 1.408,1.25 1.871,2.282 l 6.21,13.701 h 11.955 l -7.545,-15.283 c -0.914,-1.856 -1.817,-3.249 -2.759,-4.263 z m -4.469,-8.219 c -0.297,0.566 -0.709,1.03 -1.26,1.418 -0.581,0.408 -1.302,0.721 -2.146,0.931 -0.891,0.223 -1.908,0.335 -3.024,0.335 h -2.002 v -9.019 h 2.258 c 2.352,0 4.1,0.369 5.195,1.098 0.954,0.635 1.418,1.705 1.418,3.273 0,0.758 -0.144,1.401 -0.439,1.964 z"
       id="path2"
       style="opacity:0" />
    <path
       d="m 105.04,135.487 c -1.73,-1.739 -3.912,-3.041 -6.485,-3.868 -2.508,-0.809 -5.46,-1.22 -8.773,-1.22 H 76.193 v 42.843 h 11.829 c 3.817,0 7.156,-0.52 9.923,-1.545 2.81,-1.039 5.157,-2.547 6.974,-4.481 1.814,-1.93 3.166,-4.288 4.016,-7.007 0.834,-2.662 1.256,-5.656 1.256,-8.899 0,-3.535 -0.423,-6.636 -1.259,-9.217 -0.854,-2.644 -2.163,-4.866 -3.892,-6.606 z m -8.401,26.037 c -1.784,1.982 -4.372,2.945 -7.912,2.945 h -2.26 v -25.297 h 2.803 c 1.981,0 3.644,0.28 4.941,0.833 1.258,0.535 2.231,1.291 2.975,2.309 0.76,1.044 1.311,2.354 1.637,3.891 0.343,1.626 0.518,3.51 0.518,5.6 0,4.458 -0.909,7.728 -2.702,9.719 z"
       id="path3"
       style="opacity:0" />
    <path
       d="m 190.275,120.327 c -16.288,0 -30.214,-5.492 -42.47,-16.725 -7.571,-6.937 -13.813,-15.436 -19.556,-24.273 -5.742,8.837 -11.985,17.336 -19.555,24.273 C 95.525,115.671 80.427,121.113 62.545,120.236 28.444,120.088 0.747,93.176 0.747,60.118 0.747,26.969 28.596,0 62.827,0 c 18.732,0 34.503,6.199 48.21,18.95 6.584,6.125 12.142,13.23 17.212,20.664 5.07,-7.434 10.629,-14.539 17.212,-20.664 C 159.168,6.199 174.939,0 193.671,0 c 34.232,0 62.08,26.969 62.08,60.118 0,33.058 -27.696,59.97 -61.798,60.118 -1.239,0.061 -2.466,0.091 -3.678,0.091 z M 140.72,59.316 c 6.794,11.023 13.388,21.283 21.42,28.643 9.066,8.309 18.622,11.727 30.975,11.074 l 0.556,-0.015 c 22.531,0 40.862,-17.45 40.862,-38.9 0,-21.449 -18.331,-38.9 -40.862,-38.9 -13.301,0 -24.028,4.216 -33.758,13.267 -7.267,6.761 -13.267,15.423 -19.193,24.831 z M 62.827,21.218 c -22.531,0 -40.862,17.451 -40.862,38.9 0,21.45 18.331,38.9 40.862,38.9 l 0.557,0.015 c 12.354,0.653 21.908,-2.765 30.974,-11.074 8.032,-7.36 14.627,-17.62 21.42,-28.643 C 109.852,49.908 103.852,41.246 96.586,34.485 86.855,25.434 76.128,21.218 62.827,21.218 Z"
       id="path10"
       style="fill:#ffffff;opacity:0.14897579" />
    <path
       d="M 196.477,52.407 V 40.901 h -11.976 v 11.506 h -11.505 v 11.918 h 11.505 v 11.591 h 11.976 V 64.325 h 11.506 V 52.407 h -11.506"
       id="path11"
       style="fill:#ffffff;opacity:0.14897579" />
    <path
       d="M 45.599,52.263 H 83.416 V 64.555 H 45.599 Z"
       id="path12"
       style="fill:#ffffff;opacity:0.14897579" />
  </g>
</svg>
