<?xml version="1.0" encoding="UTF-8" standalone="no"?>
<!-- Generator: Adobe Illustrator 27.5.0, SVG Export Plug-In . SVG Version: 6.00 Build 0)  -->

<svg
   version="1.1"
   id="Layer_1"
   x="0px"
   y="0px"
   viewBox="0 0 1404.4366 3885.2907"
   xml:space="preserve"
   sodipodi:docname="orange-background.svg"
   width="1404.4366"
   height="3885.2908"
   inkscape:version="1.4 (86a8ad7, 2024-10-11)"
   xmlns:inkscape="http://www.inkscape.org/namespaces/inkscape"
   xmlns:sodipodi="http://sodipodi.sourceforge.net/DTD/sodipodi-0.dtd"
   xmlns:xlink="http://www.w3.org/1999/xlink"
   xmlns="http://www.w3.org/2000/svg"
   xmlns:svg="http://www.w3.org/2000/svg"><defs
   id="defs34" /><sodipodi:namedview
   id="namedview34"
   pagecolor="#ffffff"
   bordercolor="#000000"
   borderopacity="0.25"
   inkscape:showpageshadow="2"
   inkscape:pageopacity="0.0"
   inkscape:pagecheckerboard="0"
   inkscape:deskcolor="#d1d1d1"
   inkscape:zoom="0.12078125"
   inkscape:cx="-1308.1501"
   inkscape:cy="1771.7982"
   inkscape:window-width="1920"
   inkscape:window-height="991"
   inkscape:window-x="-9"
   inkscape:window-y="-9"
   inkscape:window-maximized="1"
   inkscape:current-layer="Layer_1" />
<g
   id="g34"
   transform="matrix(0,2.7322554,-1.7696584,0,1415.7267,0)">
	<defs
   id="defs1">
		<rect
   id="SVGID_1_"
   width="1422"
   height="800"
   x="0"
   y="0" />
	</defs>
	<clipPath
   id="SVGID_00000139984846805508592690000008230061406810229897_">
		<use
   xlink:href="#SVGID_1_"
   style="overflow:visible"
   id="use1" />
	</clipPath>
	
		<rect
   style="fill:#ff9700"
   width="1422"
   height="800"
   clip-path="url(#SVGID_00000139984846805508592690000008230061406810229897_)"
   id="rect1"
   x="0"
   y="0" />
	<g
   clip-path="url(#SVGID_00000139984846805508592690000008230061406810229897_)"
   id="g33">
		
			<rect
   x="311"
   y="-29.698"
   transform="matrix(0.7071,-0.7071,0.7071,0.7071,90.6756,220.9102)"
   style="fill:#ffb600"
   width="2"
   height="61.396999"
   id="rect2" />
		
			<rect
   x="647"
   y="-29.698"
   transform="matrix(0.7071,-0.7071,0.7071,0.7071,189.0877,458.4981)"
   style="fill:#ffb600"
   width="2"
   height="61.396999"
   id="rect3" />
		
			<rect
   x="899"
   y="-29.698"
   transform="matrix(0.7071,-0.7071,0.7071,0.7071,262.8968,636.689)"
   style="fill:#ffb600"
   width="2"
   height="61.396999"
   id="rect4" />
		
			<rect
   x="1319"
   y="-29.698"
   transform="matrix(0.7071,-0.7071,0.7071,0.7071,385.912,933.6738)"
   style="fill:#ffb600"
   width="2"
   height="61.396999"
   id="rect5" />
		
			<rect
   x="1403"
   y="-29.698"
   transform="matrix(0.7071,-0.7071,0.7071,0.7071,410.515,993.0708)"
   style="fill:#ffb600"
   width="2"
   height="61.396999"
   id="rect6" />
		<polygon
   style="fill:#ffb600"
   points="165,107.414 166.414,106 165,104.586 124.414,64 166.414,22 165,20.586 123,62.586 82.414,22 124.414,-20 123,-21.414 81,20.586 40.414,-20 39,-21.414 37.586,-20 -3,20.586 -4.414,22 -3,23.414 39,65.414 40.414,64 -1.586,22 39,-18.586 79.586,22 81,23.414 121.586,64 79.586,106 81,107.414 123,65.414 163.586,106 121.586,148 123,149.414 "
   id="polygon6" />
		<polygon
   style="fill:#ffb600"
   points="291,65.414 292.414,64 250.414,22 249,20.586 207,-21.414 205.586,-20 247.586,22 205.586,64 207,65.414 249,23.414 "
   id="polygon7" />
		<polygon
   style="fill:#ffb600"
   points="417,-21.414 415.586,-20 457.586,22 459,23.414 499.586,64 459,104.586 417,62.586 415.586,64 457.586,106 459,107.414 460.414,106 501,65.414 502.414,64 501,62.586 460.414,22 459,20.586 "
   id="polygon8" />
		<path
   style="fill:#ffb600"
   d="M 627,23.414 667.586,64 669,65.414 709.586,106 711,107.414 751.586,148 753,149.414 793.586,190 795,191.414 835.586,232 837,233.414 877.586,274 879,275.414 919.586,316 l 1.414,1.414 42,42 1.414,-1.414 -42,-42 L 921,314.586 880.414,274 921,233.414 922.414,232 l 42,-42 -1.414,-1.414 -42,42 L 919.586,232 879,272.586 838.414,232 l 42,-42 -1.414,-1.414 -42,42 -40.586,-40.586 42,-42 -1.414,-1.414 -42,42 L 754.414,148 795,107.414 796.414,106 837,65.414 838.414,64 837,62.586 796.414,22 795,20.586 l -42,-42 -1.414,1.414 42,42 L 795,23.414 835.586,64 795,104.586 754.414,64 753,62.586 751.586,64 711,104.586 670.414,64 711,23.414 712.414,22 711,20.586 l -42,-42 -1.414,1.414 42,42 L 669,62.586 628.414,22 627,20.586 l -42,-42 -1.414,1.414 42,42 z m 126,42 L 793.586,106 753,146.586 712.414,106 Z"
   id="path8" />
		<polygon
   style="fill:#ffb600"
   points="795,65.414 796.414,64 754.414,22 753,20.586 711,-21.414 709.586,-20 751.586,22 709.586,64 711,65.414 753,23.414 "
   id="polygon9" />
		<path
   style="fill:#ffb600"
   d="M 879,23.414 919.586,64 l -42,42 1.414,1.414 42,-42 L 961.586,106 963,107.414 964.414,106 1005,65.414 1006.414,64 1005,62.586 964.414,22 963,20.586 l -42,-42 -1.414,1.414 42,42 L 921,62.586 880.414,22 879,20.586 l -42,-42 -1.414,1.414 42,42 z m 84,0 L 1003.586,64 963,104.586 922.414,64 Z"
   id="path9" />
		<polygon
   style="fill:#ffb600"
   points="1132.414,-20 1131,-21.414 1089,20.586 1087.586,22 1089,23.414 1131,65.414 1132.414,64 1090.414,22 "
   id="polygon10" />
		<polygon
   style="fill:#ffb600"
   points="1173,20.586 1171.586,22 1213.586,64 1215,65.414 1216.414,64 1257,23.414 1258.414,22 1257,20.586 1215,-21.414 1213.586,-20 1255.586,22 1215,62.586 "
   id="polygon11" />
		<path
   style="fill:#ffb600"
   d="m 1384.414,22 -1.414,-1.414 -42,-42 -1.414,1.414 42,42 L 1341,62.586 1300.414,22 1299,20.586 l -42,-42 -1.414,1.414 42,42 L 1257,62.586 1255.586,64 1215,104.586 1174.414,64 1173,62.586 1132.414,22 1173,-18.586 l 42,42 1.414,-1.414 -42,-42 L 1173,-21.414 1171.586,-20 1131,20.586 1129.586,22 1131,23.414 1171.586,64 1131,104.586 1090.414,64 1089,62.586 1048.414,22 l 42,-42 -1.414,-1.414 -42,42 -1.414,1.414 1.414,1.414 40.586,40.586 -42,42 1.414,1.414 42,-42 L 1129.586,106 1131,107.414 1132.414,106 1173,65.414 1213.586,106 1215,107.414 1216.414,106 1257,65.414 1297.586,106 1257,146.586 l -1.414,1.414 -42,42 1.414,1.414 42,-42 1.414,-1.414 40.586,-40.586 42,42 1.414,-1.414 -42,-42 L 1341,65.414 1381.586,106 1383,107.414 1384.414,106 1425,65.414 1426.414,64 1425,62.586 Z M 1299,104.586 1258.414,64 1299,23.414 1339.586,64 Z m 84,0 L 1342.414,64 1383,23.414 1423.586,64 Z"
   id="path11" />
		<polygon
   style="fill:#ffb600"
   points="628.414,106 627,104.586 586.414,64 585,62.586 543,20.586 541.586,22 583.586,64 585,65.414 625.586,106 627,107.414 669,149.414 670.414,148 "
   id="polygon12" />
		<path
   style="fill:#ffb600"
   d="m 1425,104.586 -42,42 -42,-42 -1.414,1.414 42,42 L 1341,188.586 1300.414,148 1299,146.586 1297.586,148 1257,188.586 1255.586,190 1215,230.586 1174.414,190 1215,149.414 l 1.414,-1.414 42,-42 -1.414,-1.414 -42,42 L 1174.414,106 1173,104.586 1171.586,106 1131,146.586 1090.414,106 1089,104.586 1087.586,106 1047,146.586 1006.414,106 1047,65.414 1048.414,64 1047,62.586 1006.414,22 l 42,-42 -1.414,-1.414 -42,42 -42,-42 -1.414,1.414 42,42 L 1005,23.414 1045.586,64 1005,104.586 1003.586,106 963,146.586 922.414,106 921,104.586 919.586,106 879,146.586 838.414,106 879,65.414 880.414,64 879,62.586 838.414,22 837,20.586 l -42,-42 -1.414,1.414 42,42 L 837,23.414 877.586,64 837,104.586 835.586,106 l -42,42 1.414,1.414 42,-42 40.586,40.586 -42,42 1.414,1.414 42,-42 40.586,40.586 -42,42 1.414,1.414 42,-42 L 922.414,190 963,149.414 1003.586,190 963,230.586 961.586,232 921,272.586 919.586,274 921,275.414 961.586,316 963,317.414 1003.586,358 963,398.586 922.414,358 921,356.586 880.414,316 879,314.586 838.414,274 837,272.586 796.414,232 795,230.586 754.414,190 753,188.586 712.414,148 711,146.586 670.414,106 669,104.586 628.414,64 627,62.586 586.414,22 585,20.586 544.414,-20 543,-21.414 541.586,-20 501,20.586 l -42,-42 -1.414,1.414 42,42 L 501,23.414 541.586,64 501,104.586 499.586,106 459,146.586 418.414,106 417,104.586 376.414,64 417,23.414 l 42,42 1.414,-1.414 -42,-42 -1.414,-1.414 -42,-42 -1.414,1.414 42,42 L 375,62.586 373.586,64 375,65.414 415.586,106 417,107.414 457.586,148 459,149.414 460.414,148 501,107.414 l 42,42 1.414,-1.414 -42,-42 L 543,65.414 583.586,106 585,107.414 625.586,148 585,188.586 583.586,190 585,191.414 625.586,232 627,233.414 628.414,232 669,191.414 709.586,232 669,272.586 667.586,274 l -42,42 1.414,1.414 42,-42 L 670.414,274 711,233.414 751.586,274 753,275.414 793.586,316 753,356.586 l -42,-42 -1.414,1.414 42,42 1.414,1.414 42,42 1.414,-1.414 -42,-42 40.586,-40.586 42,42 1.414,-1.414 -42,-42 L 795,314.586 754.414,274 753,272.586 712.414,232 753,191.414 793.586,232 795,233.414 835.586,274 837,275.414 877.586,316 879,317.414 919.586,358 921,359.414 961.586,400 963,401.414 964.414,400 1005,359.414 1045.586,400 1005,440.586 l -1.414,1.414 -42,42 1.414,1.414 42,-42 L 1006.414,442 1047,401.414 1087.586,442 1089,443.414 1129.586,484 1089,524.586 l -42,-42 -1.414,1.414 42,42 1.414,1.414 L 1129.586,568 1089,608.586 1048.414,568 1047,566.586 l -42,-42 -1.414,1.414 42,42 L 1005,608.586 964.414,568 963,566.586 922.414,526 921,524.586 919.586,526 l -42,42 1.414,1.414 42,-42 L 961.586,568 963,569.414 1003.586,610 963,650.586 922.414,610 921,608.586 919.586,610 879,650.586 838.414,610 837,608.586 796.414,568 837,527.414 838.414,526 l 42,-42 -1.414,-1.414 -42,42 -42,-42 -1.414,1.414 42,42 L 795,566.586 793.586,568 753,608.586 712.414,568 711,566.586 670.414,526 669,524.586 667.586,526 627,566.586 586.414,526 585,524.586 544.414,484 543,482.586 502.414,442 543,401.414 544.414,400 585,359.414 l 42,42 1.414,-1.414 -42,-42 L 585,356.586 583.586,358 543,398.586 541.586,400 501,440.586 460.414,400 501,359.414 502.414,358 543,317.414 544.414,316 543,314.586 502.414,274 501,272.586 460.414,232 501,191.414 l 42,42 1.414,-1.414 -42,-42 L 501,188.586 499.586,190 459,230.586 457.586,232 459,233.414 499.586,274 501,275.414 541.586,316 501,356.586 499.586,358 459,398.586 418.414,358 459,317.414 460.414,316 459,314.586 418.414,274 417,272.586 376.414,232 375,230.586 334.414,190 333,188.586 292.414,148 333,107.414 373.586,148 l 1.414,1.414 42,42 1.414,-1.414 -42,-42 L 375,146.586 334.414,106 333,104.586 331.586,106 291,146.586 289.586,148 249,188.586 208.414,148 207,146.586 205.586,148 165,188.586 163.586,190 165,191.414 205.586,232 207,233.414 208.414,232 249,191.414 250.414,190 291,149.414 331.586,190 291,230.586 289.586,232 249,272.586 247.586,274 249,275.414 289.586,316 l 1.414,1.414 42,42 1.414,-1.414 -42,-42 L 333,275.414 373.586,316 375,317.414 415.586,358 375,398.586 373.586,400 333,440.586 292.414,400 291,398.586 l -42,-42 -1.414,1.414 42,42 L 291,401.414 331.586,442 291,482.586 289.586,484 291,485.414 331.586,526 333,527.414 334.414,526 375,485.414 415.586,526 375,566.586 373.586,568 l -42,42 1.414,1.414 42,-42 L 376.414,568 417,527.414 457.586,568 459,569.414 499.586,610 501,611.414 502.414,610 543,569.414 583.586,610 543,650.586 541.586,652 543,653.414 583.586,694 l -42,42 1.414,1.414 42,-42 L 586.414,694 585,692.586 544.414,652 585,611.414 625.586,652 627,653.414 667.586,694 669,695.414 709.586,736 711,737.414 751.586,778 l -42,42 1.414,1.414 42,-42 42,42 1.414,-1.414 -42,-42 L 795,737.414 835.586,778 837,779.414 838.414,778 879,737.414 880.414,736 921,695.414 961.586,736 963,737.414 1003.586,778 963,818.586 l -42,-42 -1.414,1.414 42,42 1.414,1.414 1.414,-1.414 40.586,-40.586 42,42 1.414,-1.414 -42,-42 42,-42 -1.414,-1.414 -42,42 L 964.414,736 963,734.586 922.414,694 963,653.414 964.414,652 1005,611.414 1006.414,610 1047,569.414 1087.586,610 l 1.414,1.414 40.586,40.586 1.414,1.414 42,42 1.414,-1.414 -42,-42 L 1131,650.586 1090.414,610 1131,569.414 l 42,42 1.414,-1.414 -42,-42 L 1131,566.586 1090.414,526 1131,485.414 1171.586,526 1173,527.414 1174.414,526 1215,485.414 1255.586,526 1257,527.414 1297.586,568 1299,569.414 1339.586,610 1341,611.414 1342.414,610 1383,569.414 l 42,42 1.414,-1.414 -42,-42 L 1383,566.586 1381.586,568 1341,608.586 1300.414,568 1299,566.586 1258.414,526 l 42,-42 -1.414,-1.414 -42,42 -40.586,-40.586 42,-42 -1.414,-1.414 -42,42 L 1174.414,442 1173,440.586 1132.414,400 1131,398.586 1090.414,358 1131,317.414 1132.414,316 1173,275.414 1213.586,316 l 1.414,1.414 40.586,40.586 1.414,1.414 1.414,-1.414 42,-42 -1.414,-1.414 -42,42 L 1216.414,316 1257,275.414 1258.414,274 1257,272.586 1216.414,232 1257,191.414 1258.414,190 1299,149.414 1339.586,190 l 1.414,1.414 40.586,40.586 1.414,1.414 42,42 1.414,-1.414 -42,-42 L 1383,230.586 1342.414,190 1383,149.414 l 42,42 1.414,-1.414 -42,-42 42,-42 z M 586.414,106 585,104.586 544.414,64 543,62.586 502.414,22 543,-18.586 583.586,22 585,23.414 625.586,64 627,65.414 667.586,106 669,107.414 709.586,148 669,188.586 628.414,148 627,146.586 Z M 627,230.586 586.414,190 627,149.414 667.586,190 Z m 84,0 L 670.414,190 711,149.414 751.586,190 Z m -504,0 L 166.414,190 207,149.414 247.586,190 Z M 795,569.414 835.586,610 837,611.414 877.586,652 837,692.586 796.414,652 795,650.586 754.414,610 Z m -126,-42 L 709.586,568 669,608.586 628.414,568 Z M 376.414,316 375,314.586 334.414,274 333,272.586 331.586,274 291,314.586 250.414,274 291,233.414 292.414,232 333,191.414 373.586,232 375,233.414 415.586,274 417,275.414 457.586,316 417,356.586 Z M 333,524.586 292.414,484 333,443.414 373.586,484 Z m 420,252 L 712.414,736 711,734.586 670.414,694 669,692.586 628.414,652 627,650.586 586.414,610 585,608.586 544.414,568 543,566.586 541.586,568 501,608.586 460.414,568 l 42,-42 -1.414,-1.414 -42,42 L 418.414,526 417,524.586 376.414,484 375,482.586 334.414,442 375,401.414 415.586,442 l 1.414,1.414 42,42 1.414,-1.414 -42,-42 L 417,440.586 376.414,400 417,359.414 457.586,400 459,401.414 499.586,442 501,443.414 541.586,484 543,485.414 583.586,526 585,527.414 625.586,568 627,569.414 667.586,610 669,611.414 670.414,610 711,569.414 751.586,610 l -42,42 1.414,1.414 42,-42 L 793.586,652 753,692.586 751.586,694 753,695.414 793.586,736 Z m 84,0 L 796.414,736 795,734.586 754.414,694 795,653.414 835.586,694 837,695.414 877.586,736 Z m 84,-84 L 919.586,694 879,734.586 838.414,694 879,653.414 880.414,652 921,611.414 961.586,652 Z M 1213.586,232 1173,272.586 1132.414,232 1173,191.414 Z M 1173,107.414 1213.586,148 1173,188.586 1132.414,148 Z m -84,0 L 1129.586,148 1131,149.414 1171.586,190 1131,230.586 1090.414,190 1089,188.586 1048.414,148 Z M 1087.586,190 1047,230.586 1006.414,190 1047,149.414 Z M 921,188.586 880.414,148 921,107.414 961.586,148 Z M 964.414,148 1005,107.414 1045.586,148 1005,188.586 Z M 1005,191.414 1045.586,232 1005,272.586 964.414,232 Z M 922.414,274 963,233.414 1003.586,274 963,314.586 Z m 42,42 L 1005,275.414 1045.586,316 1005,356.586 Z m 42,42 L 1047,317.414 1087.586,358 1047,398.586 Z M 1213.586,484 1173,524.586 1132.414,484 1173,443.414 Z m -84,-84 1.414,1.414 L 1171.586,442 1131,482.586 1090.414,442 1089,440.586 1048.414,400 1089,359.414 Z M 1131,314.586 1129.586,316 1089,356.586 1048.414,316 1047,314.586 1006.414,274 1047,233.414 1048.414,232 1089,191.414 1129.586,232 1131,233.414 1171.586,274 Z M 1255.586,274 1215,314.586 1174.414,274 1215,233.414 Z"
   id="path12" />
		
			<rect
   x="1109"
   y="138.302"
   transform="matrix(0.7071,-0.7071,0.7071,0.7071,205.6104,834.3875)"
   style="fill:#ffb600"
   width="2"
   height="61.396999"
   id="rect12" />
		
			<rect
   x="1403"
   y="180.302"
   transform="matrix(0.7071,-0.7071,0.7071,0.7071,262.0226,1054.5784)"
   style="fill:#ffb600"
   width="2"
   height="61.396999"
   id="rect13" />
		<polygon
   style="fill:#ffb600"
   points="39,272.586 -1.586,232 39,191.414 40.414,190 39,188.586 -3,146.586 -4.414,148 37.586,190 -3,230.586 -4.414,232 -3,233.414 37.586,274 39,275.414 79.586,316 37.586,358 39,359.414 81,317.414 82.414,316 81,314.586 40.414,274 82.414,232 81,230.586 "
   id="polygon13" />
		<path
   style="fill:#ffb600"
   d="M 1090.414,232 1089,230.586 1087.586,232 1047,272.586 1045.586,274 1047,275.414 1087.586,316 1089,317.414 1090.414,316 1131,275.414 1132.414,274 1131,272.586 Z M 1089,314.586 1048.414,274 1089,233.414 1129.586,274 Z"
   id="path13" />
		<polygon
   style="fill:#ffb600"
   points="375,272.586 334.414,232 333,230.586 331.586,232 289.586,274 291,275.414 333,233.414 373.586,274 375,275.414 417,317.414 418.414,316 376.414,274 "
   id="polygon14" />
		<polygon
   style="fill:#ffb600"
   points="1383,317.414 1384.414,316 1342.414,274 1341,272.586 1299,230.586 1297.586,232 1339.586,274 1341,275.414 "
   id="polygon15" />
		<path
   style="fill:#ffb600"
   d="M 1384.414,274 1383,272.586 1342.414,232 1341,230.586 1300.414,190 1299,188.586 1297.586,190 1257,230.586 l -1.414,1.414 1.414,1.414 40.586,40.586 -42,42 1.414,1.414 42,-42 L 1339.586,316 1299,356.586 1297.586,358 1257,398.586 1216.414,358 1215,356.586 1174.414,316 1173,314.586 1171.586,316 1131,356.586 1129.586,358 1131,359.414 1171.586,400 1173,401.414 1213.586,442 1215,443.414 1216.414,442 1257,401.414 1297.586,442 l -42,42 1.414,1.414 42,-42 40.586,40.586 -40.586,40.586 -1.414,1.414 1.414,1.414 40.586,40.586 1.414,1.414 1.414,-1.414 40.586,-40.586 42,42 1.414,-1.414 -42,-42 L 1425,485.414 1426.414,484 1425,482.586 1384.414,442 l 42,-42 -1.414,-1.414 -42,42 -42,-42 -1.414,1.414 42,42 1.414,1.414 L 1423.586,484 1383,524.586 1342.414,484 1341,482.586 1300.414,442 1299,440.586 1258.414,400 1299,359.414 1300.414,358 1341,317.414 1381.586,358 1383,359.414 1384.414,358 1425,317.414 1426.414,316 1425,314.586 Z M 1381.586,526 1341,566.586 1300.414,526 1341,485.414 Z M 1215,440.586 1174.414,400 1173,398.586 1132.414,358 1173,317.414 1213.586,358 1215,359.414 1255.586,400 Z m 168,-84 L 1342.414,316 1341,314.586 1300.414,274 1299,272.586 1258.414,232 1299,191.414 1339.586,232 1341,233.414 1381.586,274 1383,275.414 1423.586,316 Z"
   id="path15" />
		
			<rect
   x="1193"
   y="348.302"
   transform="matrix(0.7071,-0.7071,0.7071,0.7071,81.721,955.2921)"
   style="fill:#ffb600"
   width="2"
   height="61.396999"
   id="rect15" />
		<polygon
   style="fill:#ffb600"
   points="1300.414,400 1341,359.414 1381.586,400 1383,401.414 1384.414,400 1426.414,358 1425,356.586 1383,398.586 1342.414,358 1341,356.586 1339.586,358 1299,398.586 1297.586,400 1299,401.414 1339.586,442 1341,443.414 1383,485.414 1384.414,484 1342.414,442 1341,440.586 "
   id="polygon16" />
		<polygon
   style="fill:#ffb600"
   points="165,443.414 166.414,442 208.414,400 207,398.586 165,440.586 123,398.586 121.586,400 163.586,442 "
   id="polygon17" />
		<polygon
   style="fill:#ffb600"
   points="669,356.586 667.586,358 709.586,400 711,401.414 753,443.414 754.414,442 712.414,400 711,398.586 "
   id="polygon18" />
		<polygon
   style="fill:#ffb600"
   points="877.586,400 835.586,442 837,443.414 879,401.414 921,443.414 922.414,442 880.414,400 879,398.586 "
   id="polygon19" />
		
			<rect
   x="1109"
   y="390.302"
   transform="matrix(0.7071,-0.7071,0.7071,0.7071,27.4195,908.1966)"
   style="fill:#ffb600"
   width="2"
   height="61.396999"
   id="rect19" />
		
			<rect
   x="605"
   y="432.302"
   transform="matrix(0.7071,-0.7071,0.7071,0.7071,-149.8972,564.1163)"
   style="fill:#ffb600"
   width="2"
   height="61.396999"
   id="rect20" />
		<polygon
   style="fill:#ffb600"
   points="165,527.414 205.586,568 207,569.414 247.586,610 249,611.414 289.586,652 291,653.414 331.586,694 333,695.414 334.414,694 375,653.414 415.586,694 417,695.414 418.414,694 459,653.414 501,695.414 502.414,694 460.414,652 459,650.586 457.586,652 417,692.586 376.414,652 375,650.586 373.586,652 333,692.586 292.414,652 291,650.586 250.414,610 249,608.586 208.414,568 207,566.586 166.414,526 165,524.586 124.414,484 123,482.586 82.414,442 81,440.586 40.414,400 81,359.414 82.414,358 123,317.414 124.414,316 165,275.414 207,317.414 208.414,316 166.414,274 165,272.586 163.586,274 123,314.586 82.414,274 123,233.414 124.414,232 123,230.586 82.414,190 81,188.586 40.414,148 39,146.586 -3,104.586 -4.414,106 37.586,148 39,149.414 79.586,190 37.586,232 39,233.414 81,191.414 121.586,232 81,272.586 79.586,274 81,275.414 121.586,316 81,356.586 79.586,358 39,398.586 -1.586,358 39,317.414 40.414,316 39,314.586 -3,272.586 -4.414,274 37.586,316 -3,356.586 -4.414,358 -3,359.414 37.586,400 -3,440.586 -4.414,442 -3,443.414 37.586,484 -4.414,526 -3,527.414 39,485.414 81,527.414 82.414,526 40.414,484 39,482.586 -1.586,442 39,401.414 79.586,442 81,443.414 121.586,484 123,485.414 163.586,526 "
   id="polygon20" />
		<polygon
   style="fill:#ffb600"
   points="207,485.414 249,527.414 250.414,526 208.414,484 250.414,442 249,440.586 207,482.586 205.586,484 "
   id="polygon21" />
		
			<rect
   x="1235"
   y="558.302"
   transform="matrix(0.7071,-0.7071,0.7071,0.7071,-54.4699,1046.498)"
   style="fill:#ffb600"
   width="2"
   height="61.396999"
   id="rect21" />
		
			<rect
   x="815"
   y="600.302"
   transform="matrix(0.7071,-0.7071,0.7071,0.7071,-207.1835,761.8148)"
   style="fill:#ffb600"
   width="2"
   height="61.396999"
   id="rect22" />
		<path
   style="fill:#ffb600"
   d="M 1383,608.586 1381.586,610 1341,650.586 1300.414,610 1299,608.586 1258.414,568 1257,566.586 1216.414,526 1215,524.586 1213.586,526 1173,566.586 l -42,-42 -1.414,1.414 42,42 1.414,1.414 40.586,40.586 -40.586,40.586 -42,-42 -1.414,1.414 42,42 1.414,1.414 L 1213.586,694 1173,734.586 1132.414,694 1131,692.586 1090.414,652 1089,650.586 1048.414,610 1047,608.586 1045.586,610 1005,650.586 1003.586,652 963,692.586 961.586,694 963,695.414 1003.586,736 1005,737.414 1006.414,736 1047,695.414 1087.586,736 1047,776.586 l -1.414,1.414 1.414,1.414 42,42 1.414,-1.414 -42,-42 L 1089,737.414 1090.414,736 1089,734.586 1048.414,694 1089,653.414 1129.586,694 l 1.414,1.414 40.586,40.586 1.414,1.414 40.586,40.586 1.414,1.414 40.586,40.586 1.414,1.414 1.414,-1.414 42,-42 -1.414,-1.414 -42,42 L 1216.414,778 1257,737.414 1258.414,736 1299,695.414 1300.414,694 1341,653.414 1381.586,694 l 1.414,1.414 42,42 1.414,-1.414 -42,-42 L 1383,692.586 1342.414,652 1383,611.414 l 42,42 1.414,-1.414 -42,-42 z m -336,84 L 1045.586,694 1005,734.586 964.414,694 1005,653.414 1006.414,652 1047,611.414 1087.586,652 Z M 1174.414,568 1215,527.414 1255.586,568 1257,569.414 1297.586,610 1257,650.586 1216.414,610 1215,608.586 Z m 0,84 L 1215,611.414 1255.586,652 1215,692.586 Z M 1215,776.586 1174.414,736 1215,695.414 1255.586,736 Z m 42,-42 L 1216.414,694 1257,653.414 1297.586,694 Z m 42,-42 L 1258.414,652 1299,611.414 1339.586,652 Z"
   id="path22" />
		<polygon
   style="fill:#ffb600"
   points="502.414,484 501,482.586 460.414,442 459,440.586 417,398.586 415.586,400 457.586,442 459,443.414 499.586,484 459,524.586 418.414,484 417,482.586 375,440.586 373.586,442 415.586,484 417,485.414 457.586,526 459,527.414 460.414,526 501,485.414 541.586,526 499.586,568 501,569.414 543,527.414 583.586,568 585,569.414 625.586,610 627,611.414 667.586,652 669,653.414 709.586,694 711,695.414 753,737.414 754.414,736 712.414,694 754.414,652 753,650.586 711,692.586 670.414,652 712.414,610 711,608.586 669,650.586 628.414,610 627,608.586 586.414,568 585,566.586 544.414,526 543,524.586 "
   id="polygon22" />
		
			<rect
   x="869.302"
   y="672"
   transform="matrix(0.7071,-0.7071,0.7071,0.7071,-212.279,833.5132)"
   style="fill:#ffb600"
   width="61.396999"
   height="2"
   id="rect23" />
		
			<rect
   x="995.302"
   y="672"
   transform="matrix(0.7071,-0.7071,0.7071,0.7071,-175.3744,922.6087)"
   style="fill:#ffb600"
   width="61.396999"
   height="2"
   id="rect24" />
		
			<rect
   x="1403"
   y="642.302"
   transform="matrix(0.7071,-0.7071,0.7071,0.7071,-64.6608,1189.895)"
   style="fill:#ffb600"
   width="2"
   height="61.396999"
   id="rect25" />
		
			<rect
   x="815"
   y="684.302"
   transform="matrix(0.7071,-0.7071,0.7071,0.7071,-266.5805,786.4178)"
   style="fill:#ffb600"
   width="2"
   height="61.396999"
   id="rect26" />
		
			<rect
   x="143"
   y="726.302"
   transform="matrix(0.7071,-0.7071,0.7071,0.7071,-493.1032,323.5435)"
   style="fill:#ffb600"
   width="2"
   height="61.396999"
   id="rect27" />
		
			<rect
   x="647"
   y="726.302"
   transform="matrix(0.7071,-0.7071,0.7071,0.7071,-345.485,679.9254)"
   style="fill:#ffb600"
   width="2"
   height="61.396999"
   id="rect28" />
		<polygon
   style="fill:#ffb600"
   points="838.414,820 879,779.414 921,821.414 922.414,820 880.414,778 921,737.414 963,779.414 964.414,778 922.414,736 921,734.586 919.586,736 879,776.586 877.586,778 837,818.586 795,776.586 793.586,778 835.586,820 837,821.414 "
   id="polygon28" />
		<polygon
   style="fill:#ffb600"
   points="1383,821.414 1384.414,820 1342.414,778 1341,776.586 1300.414,736 1341,695.414 1381.586,736 1383,737.414 1425,779.414 1426.414,778 1384.414,736 1383,734.586 1342.414,694 1341,692.586 1339.586,694 1299,734.586 1297.586,736 1255.586,778 1257,779.414 1299,737.414 1339.586,778 1297.586,820 1299,821.414 1341,779.414 "
   id="polygon29" />
		<path
   style="fill:#ffb600"
   d="M 208.414,778 207,776.586 166.414,736 165,734.586 124.414,694 123,692.586 121.586,694 81,734.586 79.586,736 81,737.414 121.586,778 l -42,42 1.414,1.414 42,-42 L 163.586,820 165,821.414 166.414,820 207,779.414 Z M 165,818.586 124.414,778 123,776.586 82.414,736 123,695.414 163.586,736 165,737.414 205.586,778 Z"
   id="path29" />
		<path
   style="fill:#ffb600"
   d="M 249,776.586 208.414,736 l 42,-42 -1.414,-1.414 -42,42 L 166.414,694 207,653.414 208.414,652 207,650.586 166.414,610 165,608.586 163.586,610 123,650.586 82.414,610 l 42,-42 -1.414,-1.414 -42,42 L 79.586,610 39,650.586 37.586,652 -3,692.586 -4.414,694 -3,695.414 37.586,736 -3,776.586 -4.414,778 -3,779.414 37.586,820 39,821.414 40.414,820 81,779.414 82.414,778 81,776.586 40.414,736 81,695.414 82.414,694 123,653.414 163.586,694 165,695.414 205.586,736 207,737.414 247.586,778 l -42,42 1.414,1.414 42,-42 42,42 1.414,-1.414 -42,-42 z M 79.586,778 39,818.586 -1.586,778 39,737.414 Z M 39,734.586 -1.586,694 39,653.414 79.586,694 Z m 42,-42 L 40.414,652 81,611.414 121.586,652 Z M 124.414,652 165,611.414 205.586,652 165,692.586 Z"
   id="path30" />
		
			<rect
   x="407.302"
   y="798"
   transform="matrix(0.7071,-0.7071,0.7071,0.7071,-436.6911,543.7344)"
   style="fill:#ffb600"
   width="61.396999"
   height="2"
   id="rect30" />
		<polygon
   style="fill:#ffb600"
   points="375,821.414 376.414,820 417,779.414 418.414,778 459,737.414 499.586,778 457.586,820 459,821.414 501,779.414 502.414,778 501,776.586 460.414,736 459,734.586 457.586,736 417,776.586 375,734.586 373.586,736 415.586,778 375,818.586 333,776.586 331.586,778 373.586,820 "
   id="polygon30" />
		<polygon
   style="fill:#ffb600"
   points="627,821.414 628.414,820 586.414,778 585,776.586 583.586,778 541.586,820 543,821.414 585,779.414 "
   id="polygon31" />
		<path
   style="fill:#ffb600"
   d="M 712.414,778 711,776.586 670.414,736 669,734.586 628.414,694 627,692.586 l -42,-42 -1.414,1.414 42,42 L 585,734.586 583.586,736 543,776.586 502.414,736 543,695.414 544.414,694 543,692.586 502.414,652 l 42,-42 -1.414,-1.414 -42,42 L 460.414,610 459,608.586 418.414,568 417,566.586 415.586,568 375,608.586 373.586,610 333,650.586 292.414,610 333,569.414 334.414,568 l 42,-42 -1.414,-1.414 -42,42 L 292.414,526 291,524.586 250.414,484 291,443.414 292.414,442 291,440.586 250.414,400 249,398.586 208.414,358 249,317.414 289.586,358 291,359.414 331.586,400 333,401.414 334.414,400 375,359.414 376.414,358 375,356.586 l -42,-42 -1.414,1.414 42,42 L 333,398.586 292.414,358 291,356.586 250.414,316 249,314.586 208.414,274 249,233.414 250.414,232 l 42,-42 -1.414,-1.414 -42,42 L 247.586,232 207,272.586 166.414,232 165,230.586 124.414,190 165,149.414 166.414,148 207,107.414 247.586,148 249,149.414 250.414,148 291,107.414 292.414,106 333,65.414 373.586,106 375,107.414 415.586,148 417,149.414 457.586,190 417,230.586 376.414,190 375,188.586 l -42,-42 -1.414,1.414 42,42 L 375,191.414 415.586,232 417,233.414 457.586,274 459,275.414 499.586,316 l -42,42 1.414,1.414 42,-42 L 502.414,316 501,314.586 460.414,274 459,272.586 418.414,232 459,191.414 460.414,190 501,149.414 541.586,190 543,191.414 583.586,232 543,272.586 l -42,-42 -1.414,1.414 42,42 L 543,275.414 583.586,316 543,356.586 541.586,358 l -42,42 1.414,1.414 42,-42 L 544.414,358 585,317.414 625.586,358 627,359.414 667.586,400 627,440.586 586.414,400 585,398.586 583.586,400 543,440.586 541.586,442 543,443.414 583.586,484 585,485.414 625.586,526 627,527.414 628.414,526 669,485.414 709.586,526 711,527.414 751.586,568 753,569.414 754.414,568 795,527.414 796.414,526 795,524.586 754.414,484 795,443.414 835.586,484 837,485.414 838.414,484 879,443.414 919.586,484 879,524.586 877.586,526 837,566.586 835.586,568 837,569.414 877.586,610 879,611.414 880.414,610 921,569.414 l 42,42 1.414,-1.414 -42,-42 L 921,566.586 919.586,568 879,608.586 838.414,568 879,527.414 880.414,526 921,485.414 961.586,526 l 1.414,1.414 42,42 1.414,-1.414 -42,-42 40.586,-40.586 40.586,40.586 1.414,1.414 42,42 1.414,-1.414 -42,-42 L 1047,524.586 1006.414,484 1047,443.414 l 42,42 1.414,-1.414 -42,-42 L 1047,440.586 1045.586,442 1005,482.586 1003.586,484 963,524.586 922.414,484 963,443.414 964.414,442 l 42,-42 -1.414,-1.414 -42,42 L 922.414,400 921,398.586 880.414,358 879,356.586 838.414,316 837,314.586 796.414,274 795,272.586 l -42,-42 -1.414,1.414 42,42 L 795,275.414 835.586,316 837,317.414 877.586,358 837,398.586 l -42,-42 -1.414,1.414 42,42 L 795,440.586 754.414,400 753,398.586 712.414,358 711,356.586 670.414,316 711,275.414 l 42,42 1.414,-1.414 -42,-42 L 711,272.586 709.586,274 669,314.586 667.586,316 627,356.586 586.414,316 627,275.414 628.414,274 l 42,-42 -1.414,-1.414 -42,42 L 586.414,232 585,230.586 544.414,190 585,149.414 586.414,148 585,146.586 l -42,-42 -1.414,1.414 42,42 L 543,188.586 502.414,148 501,146.586 499.586,148 459,188.586 418.414,148 417,146.586 376.414,106 375,104.586 334.414,64 375,23.414 376.414,22 375,20.586 l -42,-42 -1.414,1.414 42,42 L 333,62.586 292.414,22 291,20.586 l -42,-42 -1.414,1.414 42,42 L 291,23.414 331.586,64 291,104.586 250.414,64 249,62.586 247.586,64 207,104.586 166.414,64 207,23.414 208.414,22 207,20.586 166.414,-20 165,-21.414 163.586,-20 l -42,42 1.414,1.414 42,-42 L 205.586,22 165,62.586 163.586,64 165,65.414 205.586,106 165,146.586 163.586,148 123,188.586 82.414,148 l 42,-42 -1.414,-1.414 -42,42 L 40.414,106 81,65.414 82.414,64 81,62.586 39,20.586 37.586,22 79.586,64 39,104.586 -3,62.586 -4.414,64 l 42,42 L 39,107.414 79.586,148 81,149.414 121.586,190 123,191.414 163.586,232 l -42,42 1.414,1.414 42,-42 L 205.586,274 207,275.414 247.586,316 207,356.586 166.414,316 165,314.586 163.586,316 123,356.586 121.586,358 81,398.586 79.586,400 81,401.414 121.586,442 123,443.414 163.586,484 165,485.414 205.586,526 207,527.414 247.586,568 249,569.414 289.586,610 291,611.414 331.586,652 333,653.414 334.414,652 375,611.414 415.586,652 417,653.414 418.414,652 459,611.414 499.586,652 501,653.414 541.586,694 501,734.586 460.414,694 459,692.586 457.586,694 417,734.586 376.414,694 375,692.586 373.586,694 333,734.586 292.414,694 291,692.586 250.414,652 249,650.586 208.414,610 207,608.586 166.414,568 165,566.586 124.414,526 123,524.586 82.414,484 81,482.586 l -42,-42 -1.414,1.414 42,42 L 81,485.414 121.586,526 81,566.586 40.414,526 39,524.586 37.586,526 -3,566.586 -4.414,568 -3,569.414 37.586,610 l -42,42 1.414,1.414 42,-42 L 40.414,610 81,569.414 82.414,568 123,527.414 163.586,568 l -42,42 1.414,1.414 42,-42 40.586,40.586 1.414,1.414 40.586,40.586 -42,42 1.414,1.414 42,-42 L 289.586,694 249,734.586 247.586,736 249,737.414 289.586,778 l 1.414,1.414 42,42 1.414,-1.414 -42,-42 40.586,-40.586 42,42 1.414,-1.414 -42,-42 L 375,695.414 415.586,736 417,737.414 418.414,736 459,695.414 499.586,736 501,737.414 541.586,778 l -42,42 1.414,1.414 42,-42 L 544.414,778 585,737.414 625.586,778 627,779.414 667.586,820 669,821.414 670.414,820 711,779.414 Z M 669,401.414 709.586,442 669,482.586 628.414,442 Z M 627,524.586 586.414,484 585,482.586 544.414,442 585,401.414 625.586,442 627,443.414 667.586,484 Z M 670.414,484 711,443.414 751.586,484 711,524.586 Z M 793.586,526 753,566.586 712.414,526 753,485.414 Z M 837,401.414 838.414,400 879,359.414 919.586,400 921,401.414 961.586,442 921,482.586 880.414,442 879,440.586 877.586,442 837,482.586 796.414,442 Z m -168,-84 L 709.586,358 711,359.414 751.586,400 753,401.414 793.586,442 753,482.586 712.414,442 711,440.586 670.414,400 669,398.586 628.414,358 Z M 625.586,274 585,314.586 544.414,274 585,233.414 Z M 249,65.414 289.586,106 249,146.586 208.414,106 Z m -84,252 L 205.586,358 165,398.586 124.414,358 Z M 124.414,442 123,440.586 82.414,400 123,359.414 163.586,400 165,401.414 166.414,400 207,359.414 247.586,400 207,440.586 205.586,442 165,482.586 Z m 84,84 L 207,524.586 166.414,484 207,443.414 208.414,442 249,401.414 289.586,442 249,482.586 247.586,484 249,485.414 289.586,526 249,566.586 Z m 42,42 L 291,527.414 331.586,568 291,608.586 Z M 417,650.586 376.414,610 417,569.414 457.586,610 Z M 39,608.586 -1.586,568 39,527.414 79.586,568 Z m 252,168 L 250.414,736 291,695.414 331.586,736 Z m 378,42 L 628.414,778 627,776.586 586.414,736 627,695.414 667.586,736 669,737.414 709.586,778 Z"
   id="path31" />
		
			<rect
   x="1151"
   y="768.302"
   transform="matrix(0.7071,-0.7071,0.7071,0.7071,-227.5653,1048.6086)"
   style="fill:#ffb600"
   width="2"
   height="61.396999"
   id="rect31" />
		<polygon
   style="fill:#ffb600"
   points="1171.586,778 1173,779.414 1215,821.414 1216.414,820 1174.414,778 1173,776.586 1132.414,736 1131,734.586 1089,692.586 1087.586,694 1129.586,736 1089,776.586 1087.586,778 1089,779.414 1131,821.414 1132.414,820 1090.414,778 1131,737.414 "
   id="polygon32" />
		<polygon
   style="fill:#ffb600"
   points="1425,821.414 1426.414,820 1384.414,778 1383,776.586 1341,734.586 1339.586,736 1381.586,778 1383,779.414 "
   id="polygon33" />
	</g>
</g>
</svg>
